<?xml version="1.0" standalone="no"?>
<!DOCTYPE svg PUBLIC "-//W3C//DTD SVG 20010904//EN"
 "http://www.w3.org/TR/2001/REC-SVG-20010904/DTD/svg10.dtd">
<svg version="1.0" xmlns="http://www.w3.org/2000/svg"
 width="980.000000pt" height="980.000000pt" viewBox="0 0 980.000000 980.000000"
 preserveAspectRatio="xMidYMid meet">
<metadata>
Created by potrace 1.14, written by Peter Selinger 2001-2017
</metadata>
<g transform="translate(0.000000,980.000000) scale(0.100000,-0.100000)"
fill="#000000" stroke="none">
<path d="M4600 9790 c-874 -81 -1630 -347 -2348 -829 -66 -44 -123 -85 -127
-91 -4 -7 34 -10 116 -10 117 0 124 -1 175 -30 32 -19 92 -39 156 -53 110 -24
105 -21 124 -93 2 -11 329 -32 339 -23 2 3 -9 29 -23 59 l-27 55 -138 5 -138
5 29 28 c29 28 30 31 18 70 l-12 42 -123 3 -124 3 133 99 133 100 138 0 137 0
64 -90 63 -89 60 -1 c33 0 83 -3 111 -6 l51 -6 67 62 67 63 39 -18 c22 -10 40
-21 40 -24 0 -4 -40 -43 -89 -89 l-90 -82 -114 0 -115 0 9 -37 c5 -21 9 -62 9
-90 l0 -53 114 0 c62 0 134 3 159 6 41 6 46 10 60 45 15 37 18 39 60 39 24 0
71 3 104 6 l61 7 12 60 c13 69 12 72 -61 81 l-49 7 17 42 c9 23 20 47 25 53
19 25 95 33 247 27 l153 -6 -87 -81 -86 -81 15 -64 c8 -34 16 -64 18 -66 3 -2
167 -25 184 -25 10 0 10 20 1 176 l-3 51 92 47 c89 45 96 47 246 63 l155 17
226 -100 226 -99 3 -90 3 -89 65 -16 c36 -9 65 -20 65 -26 -1 -5 -14 -35 -30
-66 l-29 -58 -106 0 -106 0 -29 -78 -29 -78 -219 52 c-120 29 -221 54 -223 56
-2 3 75 46 171 97 96 51 175 96 175 100 0 5 -30 33 -67 65 -78 65 -67 63 -266
37 l-138 -17 -67 -66 c-67 -65 -67 -66 -136 -72 -38 -3 -71 -8 -73 -10 -3 -3
-2 -23 2 -44 5 -31 12 -42 31 -46 13 -4 24 -10 24 -16 0 -10 -16 -15 -75 -25
-43 -7 -55 -18 -55 -52 0 -18 -8 -22 -51 -28 -27 -4 -52 -5 -55 -2 -3 2 -10
36 -17 75 l-12 70 -111 -34 c-95 -29 -142 -52 -325 -159 -118 -69 -216 -130
-217 -135 -2 -6 6 -49 19 -96 l23 -86 65 -43 c59 -38 76 -44 161 -54 157 -19
140 0 140 -162 0 -129 1 -140 18 -135 9 3 37 8 62 11 l45 7 52 108 51 109 131
41 131 41 0 167 0 168 70 52 70 53 133 -31 c226 -53 210 -47 203 -83 -3 -18
-8 -67 -12 -109 l-7 -78 52 0 c43 0 71 10 171 60 66 33 121 60 123 60 2 0 7
-64 11 -142 3 -79 10 -144 14 -146 23 -8 175 -109 173 -115 0 -4 -1 -40 -1
-81 l0 -74 -82 -27 c-46 -15 -87 -31 -92 -35 -4 -5 -5 -21 -2 -37 6 -26 19
-35 116 -78 116 -51 115 -50 104 -117 -4 -24 -13 -38 -25 -41 -25 -7 -288 76
-300 94 -21 34 -10 68 31 95 36 24 40 31 40 70 0 42 -1 44 -41 54 -48 13 -69
8 -69 -17 0 -40 -19 -47 -172 -68 -47 -6 -47 -6 -68 34 -26 52 -44 61 -128 61
-86 0 -102 -14 -102 -87 l0 -50 58 -16 c31 -9 67 -18 79 -19 19 -3 18 -6 -18
-47 -39 -43 -40 -44 -54 -24 -8 11 -35 26 -61 32 l-47 12 -86 -82 c-47 -46
-97 -93 -110 -105 -18 -17 -22 -26 -14 -36 9 -10 -23 -31 -144 -98 l-154 -85
-150 -157 -151 -158 -10 -69 -10 -70 -152 -100 c-96 -64 -178 -128 -225 -175
l-74 -75 7 -150 6 -150 -100 47 -100 47 0 88 0 87 -292 0 -293 -1 -150 -77
-149 -77 -66 -122 c-47 -86 -72 -149 -90 -217 l-24 -95 38 -85 c21 -47 43 -90
50 -95 6 -4 63 -14 127 -21 l115 -13 182 121 c99 67 183 118 185 114 2 -4 10
-29 17 -55 l13 -48 -57 -109 c-41 -78 -53 -111 -44 -114 7 -3 72 -15 144 -27
l131 -22 14 -221 14 -220 190 -33 c105 -17 195 -32 200 -32 6 -1 65 63 133
142 l122 143 148 -30 147 -30 51 -70 50 -71 130 3 c168 4 174 5 174 42 0 16 4
31 10 35 5 3 40 -10 79 -29 69 -35 69 -36 158 -175 l88 -140 155 -1 155 0 57
-100 56 -99 9 -123 8 -122 165 -65 165 -64 225 -6 224 -6 60 -100 60 -100 93
-29 c59 -19 93 -34 93 -43 0 -8 -7 -45 -16 -83 -14 -64 -24 -80 -119 -200 -76
-97 -105 -141 -109 -168 -3 -20 -17 -154 -32 -296 -24 -237 -28 -261 -48 -277
-11 -9 -52 -42 -91 -73 l-70 -56 -145 0 -145 0 -45 -80 c-25 -44 -44 -86 -43
-93 1 -6 16 -76 33 -153 l32 -142 -152 -193 c-88 -112 -172 -232 -201 -285
l-49 -90 -152 -72 c-130 -61 -166 -73 -240 -83 -92 -13 -98 -17 -98 -79 0 -23
7 -27 66 -44 l66 -19 -7 -36 c-5 -26 -23 -53 -66 -96 -32 -33 -59 -64 -59 -69
0 -4 16 -28 36 -52 l36 -44 69 0 69 0 0 -47 c0 -27 -11 -83 -25 -126 -42 -130
-41 -131 79 -231 l104 -87 -13 -42 -12 -42 -94 -3 c-180 -6 -177 -7 -335 129
l-139 121 -116 201 -116 202 13 140 c22 251 26 232 -66 355 -44 59 -80 116
-80 126 0 11 14 94 30 184 34 185 35 200 18 200 -7 0 -30 5 -50 11 l-38 10 0
420 0 419 -132 99 c-157 116 -153 113 -246 136 -58 14 -73 21 -77 39 -2 11 -9
48 -16 81 -11 57 -21 72 -187 280 -96 121 -179 225 -183 230 -4 6 1 49 11 95
11 47 20 114 20 150 0 36 3 96 7 133 l6 68 123 85 c68 47 125 88 127 92 4 8
-31 304 -37 310 -4 3 -312 30 -362 32 -6 0 -77 75 -157 168 l-146 167 -123 32
c-68 18 -143 36 -168 41 -45 8 -45 8 -42 48 1 21 4 49 7 60 4 20 -1 23 -71 33
-105 15 -104 16 -104 -19 0 -16 -5 -30 -10 -30 -6 0 -101 23 -213 51 l-202 50
-83 130 -84 129 31 57 c17 31 31 62 31 70 0 7 -60 100 -134 206 l-133 194 -23
147 -22 146 -59 0 c-70 0 -66 13 -41 -170 l18 -125 93 -144 c85 -132 92 -147
86 -180 -12 -71 -8 -68 -87 -57 l-73 9 -97 167 -98 167 0 195 0 195 -100 46
-100 46 0 141 c0 77 -4 140 -8 140 -24 0 -182 -460 -247 -715 -112 -443 -151
-797 -142 -1298 5 -314 16 -454 57 -707 200 -1232 881 -2354 1897 -3123 588
-445 1331 -771 2053 -901 350 -63 582 -80 983 -73 315 5 460 17 707 58 1130
187 2147 758 2910 1634 50 57 90 108 90 114 0 7 -29 11 -80 11 l-80 0 0 163 0
164 -90 119 -89 119 -1 201 0 201 -73 66 -74 66 -6 81 -6 81 89 171 c50 94 90
175 90 179 0 5 -77 144 -171 310 l-171 301 16 166 c9 92 19 185 21 208 l6 41
-153 13 -153 13 -61 59 -61 58 -107 0 -108 0 -55 -50 -55 -50 -183 0 c-155 0
-184 -2 -189 -15 -5 -13 -23 -15 -104 -13 l-99 3 -231 265 -232 265 1 145 c1
80 4 171 8 203 6 53 9 59 41 75 31 15 35 23 47 82 19 104 21 100 -42 100 l-54
0 -11 43 c-6 23 -15 55 -20 71 -6 16 -10 32 -10 36 0 4 121 94 270 201 l269
194 1 140 0 140 128 70 127 69 167 -3 166 -3 84 46 84 45 249 21 c137 11 260
20 272 20 23 0 23 -1 23 -139 l0 -139 211 -52 c172 -43 221 -59 261 -87 38
-25 61 -33 94 -33 l44 0 0 79 0 78 98 7 c53 4 106 9 117 12 14 4 55 -21 140
-85 l120 -90 201 -1 c245 0 238 -4 206 106 -13 42 -42 128 -65 192 l-42 117
-131 3 -130 3 -63 69 -62 70 -10 92 c-17 154 -8 144 -89 101 l-69 -38 -33
-134 -33 -134 -92 98 -93 97 0 92 0 92 -130 112 -131 113 -108 -3 -109 -3 35
-95 34 -96 124 -69 c69 -37 134 -79 146 -91 l22 -23 -27 -12 c-26 -12 -26 -13
-20 -85 l7 -73 -59 -26 c-47 -21 -68 -25 -104 -20 -55 8 -58 9 -95 58 l-29 39
83 -3 c82 -3 84 -3 107 26 13 17 24 33 24 36 0 3 -85 64 -190 134 l-190 129
-15 53 c-9 29 -19 53 -23 53 -4 0 -40 -29 -80 -65 -40 -36 -81 -65 -90 -65 -9
1 -45 7 -80 14 l-63 14 -33 -42 c-143 -179 -212 -277 -233 -332 l-24 -61 -61
-7 c-33 -3 -118 -6 -188 -6 -122 0 -131 1 -194 31 -36 17 -66 36 -66 42 -1 7
-9 66 -19 132 l-19 120 25 62 25 62 76 16 c43 9 92 21 110 25 23 6 70 2 160
-16 69 -13 129 -24 132 -24 6 0 30 105 30 132 0 11 -16 20 -51 28 -50 12 -51
13 -45 44 4 17 12 63 18 101 6 39 12 71 13 73 2 2 231 41 246 42 4 0 44 53 89
118 46 64 86 120 90 125 3 4 46 14 94 23 70 12 103 13 157 5 37 -6 88 -11 113
-11 41 0 46 2 46 23 0 26 -29 210 -34 215 -2 1 -43 -13 -92 -32 -48 -20 -93
-36 -100 -36 -6 0 -26 38 -44 84 l-32 84 -59 6 c-32 4 -59 8 -59 10 0 2 -4 27
-10 56 l-10 52 46 52 c41 45 60 57 161 97 114 45 115 46 144 100 l30 54 -38
34 c-88 78 -287 232 -408 317 -680 473 -1408 748 -2255 850 -156 19 -785 28
-940 14z m2874 -1722 c29 -150 123 -291 216 -325 l48 -18 -51 -58 -52 -58
-156 -6 -155 -6 3 39 c2 21 6 58 9 80 l5 41 60 13 c54 12 60 15 55 34 -3 12
-6 31 -6 42 0 16 -25 38 -95 84 -89 59 -95 65 -95 96 0 19 10 50 22 68 19 29
32 36 88 49 36 8 70 15 75 16 6 1 19 -41 29 -91z m-209 -148 l46 -20 -7 -47
c-3 -27 -9 -51 -13 -54 -3 -4 -48 -37 -100 -73 -88 -61 -99 -66 -148 -66 l-53
0 0 43 c0 57 88 204 128 213 15 3 41 10 57 14 17 5 33 9 37 9 3 1 27 -8 53
-19z m-2567 -585 c3 -2 -3 -16 -12 -30 -11 -17 -25 -25 -46 -25 -25 0 -30 -5
-35 -33 -8 -39 -34 -58 -94 -67 -37 -6 -44 -5 -48 11 -3 11 -12 19 -19 19 -9
0 -14 11 -14 30 l0 30 68 0 69 0 16 41 16 42 47 -7 c26 -3 50 -8 52 -11z
m-393 -91 c24 -16 32 -48 17 -70 -4 -6 -26 -14 -49 -18 -40 -6 -43 -5 -43 16
0 22 34 88 45 88 3 0 17 -7 30 -16z"/>
</g>
</svg>
